<svg width="1920" height="1080" viewBox="0 0 1920 1080" fill="none" xmlns="http://www.w3.org/2000/svg">
<defs>
<linearGradient id="gradient" x1="0%" y1="0%" x2="100%" y2="100%">
<stop offset="0%" style="stop-color:#0a0a1a;stop-opacity:1" />
<stop offset="50%" style="stop-color:#1a1a2e;stop-opacity:1" />
<stop offset="100%" style="stop-color:#000000;stop-opacity:1" />
</linearGradient>
<radialGradient id="spotlight" cx="50%" cy="30%" r="60%">
<stop offset="0%" style="stop-color:#d4af37;stop-opacity:0.1" />
<stop offset="100%" style="stop-color:#000000;stop-opacity:0.8" />
</radialGradient>
</defs>
<rect width="1920" height="1080" fill="url(#gradient)"/>
<rect width="1920" height="1080" fill="url(#spotlight)"/>
<!-- Simulated luxury vehicle silhouette -->
<rect x="480" y="400" width="960" height="280" rx="40" fill="#111111" opacity="0.4"/>
<ellipse cx="580" cy="640" rx="40" ry="40" fill="#222" opacity="0.5"/>
<ellipse cx="1340" cy="640" rx="40" ry="40" fill="#222" opacity="0.5"/>
<!-- Security officer silhouette -->
<ellipse cx="760" cy="460" rx="20" ry="30" fill="#333" opacity="0.6"/>
<!-- Subtle gold accents -->
<rect x="480" y="550" width="20" height="40" fill="#d4af37" opacity="0.4"/>
<rect x="1420" y="550" width="20" height="40" fill="#d4af37" opacity="0.4"/>
<!-- City skyline background -->
<rect x="100" y="200" width="40" height="200" fill="#222" opacity="0.2"/>
<rect x="180" y="150" width="60" height="250" fill="#222" opacity="0.2"/>
<rect x="280" y="180" width="50" height="220" fill="#222" opacity="0.2"/>
<rect x="1600" y="160" width="45" height="240" fill="#222" opacity="0.2"/>
<rect x="1700" y="120" width="55" height="280" fill="#222" opacity="0.2"/>
<rect x="1800" y="140" width="40" height="260" fill="#222" opacity="0.2"/>
<!-- Professional protection text -->
<text x="960" y="900" text-anchor="middle" fill="#d4af37" opacity="0.3" font-size="24" font-family="sans-serif">Executive Protection Service</text>
</svg>